<svg version="1.2" xmlns="http://www.w3.org/2000/svg" viewBox="0 0 4096 4096" width="4096" height="4096">
	<title>brume</title>
	<style>
		.s0 { fill: #514ea1 } 
		.s1 { fill: #eeecf5 } 
		.s2 { fill: #cbc5e1 } 
	</style>
	<g id="Layer 1">
		<g id="&lt;Group&gt;">
			<path id="&lt;Path&gt;" class="s0" d="m587.2 1520.1c178.5-393.1 526.7-684.4 946.7-789.9 418.9-105.2 864.7-12.9 1207 248.4 236.1-65.9 486.3 49.6 589.7 271.4 316.4 49.8 584.4 263.4 702.7 563.3 122.7 311.3 62.6 669-155.3 923.1-210 244.8-533.4 359-849 302.2-394.1 413.9-1028.7 489.8-1509.5 180.3-234.2 81.1-495.4-14.9-622.2-225.9-250.7 48.9-513.4-33.7-690.7-220.6-191-201.3-255.7-491.5-168.4-754.9 83.4-251.5 292.4-439.6 549-497.4z"/>
			<path id="&lt;Path&gt;" class="s1" d="m2727.1 1055.5c-329.8-266-765.4-361.6-1176.4-258.4-411 103.2-749.6 393.4-914.7 783.6-248.4 43-453 219.2-532.3 458.5-79.4 239.3-20.6 502.8 152.9 685.7 173.5 182.9 433.6 255.4 676.7 188.8 103.6 224.6 367.4 325.8 594.7 227.9 466.8 321.2 1099.7 244.7 1476.6-178.3 302.9 68.5 618.9-36.1 821.1-271.9 202.1-235.7 257.3-563.9 143.4-852.8-113.9-288.9-378.3-491.1-687-525.5-82.3-224.2-330.6-339.4-555-257.6z"/>
			<path id="&lt;Path&gt;" class="s2" d="m2727.1 1055.5c-329.8-266-765.4-361.6-1176.4-258.4 424.4-63.9 855.6 60.9 1180.3 341.6 109.2-42.4 231.9-30.9 331.3 31 99.5 61.9 164 166.9 174.1 283.6 353.4 116.2 554.6 488 458.5 847.4-96.1 359.3-456 581.1-820.2 505.4-146.8 207.5-375.7 341.9-628.4 368.9-252.7 27-504.9-55.9-692.2-227.6-102 82.8-240.3 105.5-363.5 59.7-123.2-45.8-213-153.3-236.1-282.7-294.5 164.6-666.6 65.2-839.9-224.3 31.7 82.2 79.4 158.7 142 224.8 173.5 182.9 433.6 255.4 676.7 188.8 103.6 224.6 367.4 325.8 594.7 227.9 466.8 321.2 1099.7 244.7 1476.6-178.3 302.9 68.5 618.9-36.1 821.1-271.9 202.1-235.7 257.3-563.9 143.4-852.8-113.9-288.9-378.3-491.1-687-525.5-82.3-224.2-330.6-339.4-555-257.6z"/>
			<g id="&lt;Group&gt;">
				<path id="&lt;Path&gt;" class="s0" d="m2460.7 1960c-100.7 0-182.1-108.8-182.1-243.4 0-134.6 81.4-243.4 182.1-243.4 100.7 0 182.1 108.8 182.1 243.4 0 134.6-81.4 243.4-182.1 243.4z"/>
				<path id="&lt;Path&gt;" class="s0" d="m1635.7 1960c-100.7 0-182-108.8-182-243.4 0-134.6 81.3-243.4 182-243.4 100.7 0 182.1 108.8 182.1 243.4 0 134.6-81.4 243.4-182.1 243.4z"/>
				<path id="&lt;Path&gt;" class="s1" d="m1690.7 1817.6c-44.8 0-81-52.6-81-117.6 0-64.9 36.2-117.5 81-117.5 44.8 0 81 52.6 81 117.5 0 65-36.2 117.6-81 117.6z"/>
				<path id="&lt;Path&gt;" class="s1" d="m2405.7 1817.6c-44.8 0-81-52.6-81-117.6 0-64.9 36.2-117.5 81-117.5 44.8 0 81 52.6 81 117.5 0 65-36.2 117.6-81 117.6z"/>
			</g>
			<path id="&lt;Path&gt;" class="s0" d="m2294.3 2159.5l-5 8.6c-37 64.2-103.7 91.3-170.5 52.7-71.2-41-70-41.1-141.1 0-66.9 38.6-133.5 11.5-170.6-52.7l-4.9-8.6q-0.5-0.9-1.1-1.9c-9-15.7-29.1-21.1-44.8-12-15.7 9.1-21 29.1-12 44.8q0.6 1 1.2 1.9l4.9 8.5c55.6 96.3 162.3 133.1 260 76.7 57.4-33.1 18.2-33.1 75.7 0 97.6 56.4 204.4 19.6 259.9-76.7l4.9-8.5q0.7-0.9 1.2-1.9c9.1-15.7 3.7-35.7-12-44.8-15.7-9.1-35.7-3.7-44.8 12q-0.5 1-1 1.9z"/>
		</g>
	</g>
</svg>