<?xml version="1.0" encoding="UTF-8"?>
<svg id="Layer_1" data-name="Layer 1" xmlns="http://www.w3.org/2000/svg" viewBox="0 0 583.27 387.44">
  <defs>
    <style>
      .cls-1 {
        fill: #4d4398;
      }

      .cls-1, .cls-2, .cls-3 {
        fill-rule: evenodd;
      }

      .cls-2 {
        fill: #d6cee6;
      }

      .cls-3 {
        fill: #f4f2f8;
      }
    </style>
  </defs>
  <path class="cls-1" d="M83.63,118.54C109.04,62.56,158.62,21.09,218.43,6.06c59.64-14.98,123.13-1.83,171.88,35.37,33.61-9.38,69.25,7.05,83.96,38.65,45.06,7.08,83.22,37.5,100.06,80.2,17.48,44.33,8.91,95.27-22.11,131.45-29.9,34.87-75.97,51.12-120.9,43.04-56.13,58.93-146.49,69.75-214.95,25.67-33.34,11.55-70.54-2.11-88.6-32.17-35.7,6.97-73.1-4.79-98.36-31.41C2.23,268.19-6.99,226.88,5.45,189.37c11.87-35.8,41.63-62.6,78.18-70.83Z"/>
  <path class="cls-3" d="M388.34,52.38C341.37,14.51,279.34,.89,220.82,15.59c-58.52,14.7-106.75,56.01-130.25,111.58-35.37,6.12-64.5,31.21-75.8,65.28-11.3,34.07-2.93,71.6,21.78,97.64,24.71,26.04,61.74,36.37,96.36,26.89,14.76,31.99,52.32,46.39,84.67,32.46,66.48,45.73,156.6,34.84,210.27-25.4,43.13,9.76,88.12-5.14,116.91-38.71,28.79-33.57,36.65-80.31,20.42-121.45-16.22-41.14-53.87-69.93-97.82-74.82-11.72-31.92-47.07-48.34-79.03-36.69Z"/>
  <path class="cls-2" d="M388.34,52.38C341.37,14.51,279.34,.89,220.82,15.59c60.43-9.1,121.83,8.67,168.07,48.63,15.55-6.04,33.03-4.4,47.18,4.41,14.16,8.81,23.34,23.78,24.79,40.39,50.32,16.54,78.96,69.49,65.28,120.66-13.68,51.17-64.94,82.75-116.79,71.97-20.9,29.55-53.49,48.68-89.48,52.53-35.99,3.85-71.89-7.96-98.57-32.42-14.53,11.8-34.22,15.03-51.76,8.51-17.54-6.52-30.33-21.84-33.62-40.26-41.94,23.44-94.92,9.29-119.6-31.93,4.5,11.7,11.3,22.6,20.22,32.01,24.71,26.04,61.74,36.37,96.36,26.89,14.76,31.99,52.32,46.39,84.67,32.46,66.48,45.73,156.6,34.84,210.27-25.4,43.13,9.76,88.12-5.14,116.91-38.71,28.79-33.57,36.65-80.31,20.42-121.45-16.22-41.14-53.87-69.93-97.82-74.82-11.72-31.92-47.07-48.34-79.03-36.69Z"/>
  <g>
    <path class="cls-1" d="M350.41,181.18c-14.32,0-25.93-15.52-25.93-34.66s11.61-34.66,25.93-34.66,25.93,15.52,25.93,34.66-11.61,34.66-25.93,34.66Z"/>
    <path class="cls-1" d="M232.93,181.18c-14.32,0-25.93-15.52-25.93-34.66s11.61-34.66,25.93-34.66,25.93,15.52,25.93,34.66-11.61,34.66-25.93,34.66Z"/>
    <path class="cls-3" d="M240.76,160.9c-6.37,0-11.54-7.49-11.54-16.73s5.16-16.73,11.54-16.73,11.54,7.49,11.54,16.73-5.16,16.73-11.54,16.73Z"/>
    <path class="cls-3" d="M342.57,160.9c6.37,0,11.54-7.49,11.54-16.73s-5.16-16.73-11.54-16.73-11.54,7.49-11.54,16.73,5.16,16.73,11.54,16.73Z"/>
  </g>
  <path class="cls-2" d="M425.57,108.43c9.37-10.6,25.29-12.27,36.66-3.85,11.37,8.42,14.42,24.13,7.01,36.19-.94-10.34-6.25-19.78-14.59-25.96-8.34-6.18-18.92-8.5-29.08-6.38Z"/>
  <path class="cls-1" d="M326.71,209.59l-.7,1.22c-5.28,9.14-14.77,13-24.29,7.51-10.13-5.85-9.96-5.85-20.1,0-9.51,5.49-19.01,1.63-24.29-7.51l-.7-1.22c-.05-.09-.09-.18-.14-.27-1.29-2.24-4.15-3-6.38-1.71-2.23,1.29-3,4.15-1.71,6.38,.05,.09,.11,.18,.17,.27l.7,1.21c7.91,13.71,23.11,18.95,37.02,10.92,8.17-4.72,2.6-4.72,10.78,0,13.91,8.03,29.11,2.78,37.02-10.92l.7-1.21c.06-.09,.12-.18,.17-.27,1.29-2.23,.52-5.09-1.71-6.38-2.23-1.29-5.09-.53-6.38,1.71-.05,.09-.1,.18-.14,.27Z"/>
</svg>